<?xml version="1.0"?>
<svg version="1.1" id="Layer_1" xmlns="http://www.w3.org/2000/svg" xmlns:xlink="http://www.w3.org/1999/xlink" x="0px" y="0px" viewBox="0 0 564.4 202.6" style="enable-background:new 0 0 564.4 202.6;" xml:space="preserve">
<style>.st0{fill:#FFFFFF;}</style>
<g>
	<g>
		<path class="st0" d="M53.6,150.7h4.9l10.1,28.2h-4.8l-3.1-8.5h-9.3l-3,8.5h-4.8L53.6,150.7z M59.3,166.4l-2.6-8l-0.6-2.9h-0.2l-0.6,2.9l-2.5,8H59.3z"/>
		<path class="st0" d="M83.8,164.2c-1.6-1.6-3.4-2-5.2-2c-3.1,0-6.1,2.2-6.2,6.6c0,3.5,2.2,6.5,6.2,6.5c2,0,3.4-0.5,5.2-2.2l2.5,2.7c-2.2,2.2-4.9,3.4-7.7,3.4c-6.9,0-10.5-5-10.5-10.5c0-5.5,3.8-10.5,10.5-10.5c2.8,0,5.3,1,7.6,3.3L83.8,164.2z"/>
		<path class="st0" d="M97.4,178.9c-4.7,0.5-8.1-1.4-8.1-6.3v-10.3h-3v-3.7h3v-5.2l4.2-0.5v5.6h3.8v3.7h-3.8v10.2c0,1.6,1,3.2,3.9,2.6V178.9z"/>
		<path class="st0" d="M99.7,155.8v-4.9h4.4v4.9H99.7z M104.1,158.6v20.3h-4.4v-20.3H104.1z"/>
		<path class="st0" d="M113.9,169.9l1.3,5.4h0.2l1.2-5.5l3.5-11.3h4.6l-6.9,20.4h-5.2l-7-20.4h4.6L113.9,169.9z"/>
		<path class="st0" d="M140.6,172.7l3.1,2c-2.4,3.2-5.4,4.6-8.8,4.6c-6.9,0-10.4-5.3-10.3-10.5c0-5.2,3.6-10.5,10.3-10.5c6.8,0,10.9,6,9.7,12.4h-15.7c0.5,2.5,2.6,4.8,6,4.8C136.6,175.3,138.9,175,140.6,172.7z M140.5,167.2c-0.1-3.6-3-5.2-5.8-5.2c-3,0-5.7,1.8-5.8,5.2H140.5z"/>
		<path class="st0" d="M176.9,157.7c-2.2-2.3-5-3.4-7.7-3.3c-6.4,0.1-9.7,5.5-9.7,10.6c0,5.1,3.4,10.3,9.7,10.3c2.9,0,6.1-1.4,8.3-4l3.2,2.5c-3,3.7-6.9,5.6-11.5,5.6c-9.3,0-14.3-7.2-14.3-14.5s5-14.7,14.3-14.7c4.1,0,7.8,1.3,10.5,4.7L176.9,157.7z"/>
		<path class="st0" d="M192.2,179.3c-6.1,0-10.6-4.7-10.6-10.5c0-5.9,4.5-10.5,10.6-10.5c6.1,0,10.5,4.6,10.5,10.5C202.8,174.7,198.4,179.3,192.2,179.3z M192.2,175.4c3.1,0,6.2-2.2,6.2-6.6c0-4.5-3.1-6.6-6.2-6.6c-3,0-6.2,2.1-6.2,6.6C186,173.3,189.2,175.4,192.2,175.4z"/>
		<path class="st0" d="M220.8,161.7c1.5-2.5,4-3.4,6.4-3.4c4.7,0,8.6,2.3,8.6,8.7v11.8h-4.3V167c0-3.6-2-4.9-4.3-4.9c-2.3,0-4.3,1.4-4.4,4.8v12h-4.2v-12c0.3-5.6-5.6-6.5-8.7-3.2v15.1h-4.4v-20.3h3.6l0.6,2.2c1.3-2,3.8-2.4,5.1-2.4C217.3,158.4,219.8,159.4,220.8,161.7z"/>
		<path class="st0" d="M255,161.7c1.5-2.5,4-3.4,6.4-3.4c4.7,0,8.6,2.3,8.6,8.7v11.8h-4.3V167c0-3.6-2-4.9-4.3-4.9c-2.3,0-4.3,1.4-4.4,4.8v12h-4.2v-12c0.3-5.6-5.6-6.5-8.7-3.2v15.1h-4.4v-20.3h3.6l0.6,2.2c1.3-2,3.8-2.4,5.1-2.4C251.5,158.4,253.9,159.4,255,161.7z"/>
		<path class="st0" d="M288.3,178.9l-0.6-2.2c-1.3,2-3.8,2.6-5.1,2.6c-5.2,0-9.2-3.6-9.2-9.1v-11.4h4.4v11.4c0,5.1,6.4,7.2,9.7,3.4v-14.8h4.4v20.3H288.3z"/>
		<path class="st0" d="M299.2,158.6l0.6,2.5c1.3-2,3.8-2.8,5.1-2.8c5.7,0,9.2,3.2,9.2,8.8v11.8h-4.4v-11.8c0-5.1-6.5-6.7-9.7-2.8v14.5h-4.4v-20.3H299.2z"/>
		<path class="st0" d="M317.8,155.8v-4.9h4.4v4.9H317.8z M322.2,158.6v20.3h-4.4v-20.3H322.2z"/>
		<path class="st0" d="M334.6,178.9c-4.7,0.5-8.1-1.4-8.1-6.3v-10.3h-3v-3.7h3v-5.2l4.2-0.5v5.6h3.8v3.7h-3.8v10.2c0,1.6,1,3.2,3.9,2.6V178.9z"/>
		<path class="st0" d="M337.5,183c2.5,0.3,3.4-0.8,3.8-1.8l1.2-3l-8.1-19.6h4.7l5.8,14.5l5.2-14.5h4.7l-9.4,24.1c-1.4,3.6-4.5,4.1-7.8,3.8L337.5,183z"/>
		<path class="st0" d="M384.8,157.7c-2.2-2.3-5-3.4-7.7-3.3c-6.4,0.1-9.7,5.5-9.7,10.6c0,5.1,3.4,10.3,9.7,10.3c2.9,0,6.1-1.4,8.3-4l3.2,2.5c-3,3.7-6.9,5.6-11.5,5.6c-9.3,0-14.3-7.2-14.3-14.5s5-14.7,14.3-14.7c4.1,0,7.8,1.3,10.5,4.7L384.8,157.7z"/>
		<path class="st0" d="M395.6,150.9v9.1c1.6-1.3,3.5-1.8,4.9-1.8c5.2,0,9,3.2,9,8.7v11.8h-4.4v-11.8c0-3.2-2.5-4.8-5.3-4.9c-1.4,0-3,0.6-4.3,1.4v15.4h-4.4v-28H395.6z"/>
		<path class="st0" d="M413.1,155.8v-4.9h4.4v4.9H413.1z M417.5,158.6v20.3h-4.4v-20.3H417.5z"/>
		<path class="st0" d="M428.1,178.9c-4.8,0.5-7.4-1.6-7.4-6.3v-21.7h4.4v21.7c0,1.6,0.6,2.6,3,2.4V178.9z"/>
		<path class="st0" d="M438,158.4c1.5,0,3.2,0.2,4.7,1.4v-8.9h4.3v28h-3.2l-0.5-2.2c-1.6,2.1-3.4,2.4-5.2,2.5c-5.5,0.1-9.3-4.9-9.3-10.3C428.8,162.6,433.1,158.5,438,158.4z M442.7,173v-9.6c-1.2-0.8-2.5-1.2-3.8-1.2c-3.1,0-5.9,2.2-5.9,6.5c0,3.6,1.9,6.6,5.4,6.6C440.2,175.4,441.7,174.9,442.7,173z"/>
		<path class="st0" d="M464.8,164.2c-1.6-1.6-3.4-2-5.2-2c-3.1,0-6.1,2.2-6.2,6.6c0,3.5,2.2,6.5,6.2,6.5c2,0,3.4-0.5,5.2-2.2l2.5,2.7c-2.2,2.2-4.9,3.4-7.7,3.4c-6.9,0-10.5-5-10.5-10.5c0-5.5,3.8-10.5,10.5-10.5c2.8,0,5.3,1,7.5,3.3L464.8,164.2z"/>
		<path class="st0" d="M482.7,178.9l-0.7-2.4c-1.5,2.2-3.4,2.7-5.8,2.7c-5.4,0-7.9-3.6-7.9-7c0-3.8,3-7.1,9.3-6.8c1.3,0,3.3,0.4,4.2,1.2v-0.8c0-3.3-2.6-4.1-5-4.1c-2.2,0-3.9,0.7-5.6,1.7l-1.8-2.8c5.6-4.8,16.5-3.6,16.5,5.1v13.2H482.7z M481.9,173.5v-3.4c-1-0.9-2.6-1.3-4.2-1.4c-2.7-0.1-5.3,0.9-5.3,3.4c0,2.3,1.4,3.3,4.8,3.3C478.8,175.5,480.8,174.7,481.9,173.5z"/>
		<path class="st0" d="M493.3,158.6l0.4,2.2c1.3-2.3,3.4-2.6,4.8-2.7c1.4,0,3.2,0.4,4.6,1.3l-1.8,3.5c-3.1-1.9-7.3-0.7-7.3,3.3v12.7h-4.3v-20.3H493.3z"/>
		<path class="st0" d="M518.2,172.7l3.1,2c-2.4,3.2-5.4,4.6-8.8,4.6c-6.9,0-10.4-5.3-10.3-10.5c0-5.2,3.6-10.5,10.3-10.5c6.8,0,10.9,6,9.7,12.4h-15.7c0.5,2.5,2.6,4.8,6,4.8C514.3,175.3,516.6,175,518.2,172.7z M518.2,167.2c-0.1-3.6-3-5.2-5.8-5.2c-3,0-5.7,1.8-5.8,5.2H518.2z"/>
	</g>
	<g>
		<path class="st0" d="M122.8,76.1c0,32-24,52.7-52.7,52.7c-28.8,0-52.8-20.5-52.8-52.7c0-32,24-52.8,52.8-52.8C98.8,23.3,122.8,44.5,122.8,76.1z M70.1,105.4c13.1,0,26.5-7.3,26.5-29.3C96.6,55,83.1,46.7,70,46.7c-13.8,0-26.5,9.8-26.5,29.4C43.5,95.9,57,105.4,70.1,105.4z"/>
		<path class="st0" d="M141,94.4c7.4,10.5,15.1,11.2,19.6,11.2c5.8,0.1,9.9-3.6,10.2-8.4c0.4-7.4-7-10.5-13-12.1h0.1c-10.8-2.8-31.3-9.9-31-31.4c0.4-21.5,18-30.1,34.5-30.1c12.2,0,24.5,5.8,32.2,19.4l-16.9,10.6c-4.1-5.2-8.4-7.6-14.3-7.6c-5.4,0-9.8,2.2-10,7.7c-0.3,6,7,7.9,11.8,9.2c16,4.2,33.2,11.9,32.3,35.7c-1,20.8-19.4,30-36.4,30c-11.2,0-26.5-4.8-35.9-21.8L141,94.4z"/>
		<path class="st0" d="M275.6,57.9c-8.6-9-17.3-11.9-24.6-11.6c-17.3,0.4-26.8,14.4-26.8,30c0,15.6,9.6,29.5,26.8,29.5c7.6,0,18-3.2,26.1-13.5l16.4,13.7c-12.7,15.4-25.9,23-42.5,23c-34.1,0-52.4-25.5-52.4-52.7c0-27.2,18.3-53.1,52.4-53.1c15,0,27.7,5.1,40.2,20.2L275.6,57.9z"/>
		<path class="st0" d="M353.8,102h-32.5l-7.7,24.9H286L320.7,24h33.8l35.2,102.9h-27.8L353.8,102z M337.2,42.6l-2.6,14.3l-6.4,22h18.8l-6.1-22l-2.6-14.3H337.2z"/>
		<path class="st0" d="M444.9,87.5H417v39.4h-26.2V25H417v39.7h27.9V25h26.1v101.9h-26.1V87.5z"/>
		<path class="st0" d="M493.4,94.4c7.4,10.5,15.1,11.2,19.6,11.2c5.8,0.1,9.9-3.6,10.2-8.4c0.4-7.4-7-10.5-13-12.1h0.1c-10.8-2.8-31.3-9.9-31-31.4c0.4-21.5,18-30.1,34.5-30.1c12.2,0,24.5,5.8,32.2,19.4l-16.9,10.6c-4.1-5.2-8.4-7.6-14.3-7.6c-5.4,0-9.8,2.2-10,7.7c-0.3,6,7,7.9,11.8,9.2c16,4.2,33.2,11.9,32.3,35.7c-1,20.8-19.4,30-36.4,30c-11.2,0-26.5-4.8-35.9-21.8L493.4,94.4z"/>
	</g>
</g>
</svg>
